# xmcd CD database file
#
# Track frame offsets:
#	150
#	17193
#	43465
#	69337
#	85997
#	100734
#	125979
#	155226
#	174650
#
# Disc length: 3087 seconds
#
# Revision: 0
# Processed by: cddbd v1.5.2PL0 Copyright (c) Steve Scherf et al.
# Submitted via: CDex 1.51
#
DISCID=810c0d09
DTITLE=Wishbone Ash - Gold Dates CD 1
DYEAR=2004
DGENRE=Blues
TTITLE0=Outward Bound
TTITLE1=Warrior
TTITLE2=Throw Down The Sword
TTITLE3=Helpless
TTITLE4=Runaway
TTITLE5=Looking For Clues
TTITLE6=Almighty Blues
TTITLE7=Changing Tracks
TTITLE8=Phoenix
EXTD=YEAR: 2004
EXTT0=
EXTT1=
EXTT2=
EXTT3=
EXTT4=
EXTT5=
EXTT6=
EXTT7=
EXTT8=
PLAYORDER=
